<svg xmlns="http://www.w3.org/2000/svg" viewBox="0 0 800 800" fill="none" stroke="#9FBCA4" stroke-width="1" opacity="1">
  <!-- Elegant Hotel Building Silhouette -->
  <g transform="translate(350, 100)">
    <!-- Main building -->
    <rect x="0" y="80" width="100" height="120" rx="2"/>
    <rect x="10" y="90" width="20" height="30" rx="1"/>
    <rect x="40" y="90" width="20" height="30" rx="1"/>
    <rect x="70" y="90" width="20" height="30" rx="1"/>
    <rect x="10" y="130" width="20" height="30" rx="1"/>
    <rect x="40" y="130" width="20" height="30" rx="1"/>
    <rect x="70" y="130" width="20" height="30" rx="1"/>
    <!-- Entrance -->
    <rect x="35" y="170" width="30" height="30" rx="1"/>
    <!-- Roof detail -->
    <path d="M-5 80 L50 50 L105 80"/>
    <!-- Flag -->
    <line x1="50" y1="50" x2="50" y2="30"/>
    <rect x="50" y="30" width="15" height="10"/>
  </g>

  <!-- Ornate Key Symbol -->
  <g transform="translate(100, 350)">
    <ellipse cx="30" cy="30" rx="25" ry="25"/>
    <ellipse cx="30" cy="30" rx="15" ry="15"/>
    <line x1="30" y1="55" x2="30" y2="130"/>
    <rect x="25" y="100" width="10" height="5"/>
    <rect x="25" y="115" width="15" height="5"/>
    <rect x="25" y="125" width="12" height="5"/>
  </g>

  <!-- Palm Frond Left -->
  <g transform="translate(50, 500)">
    <path d="M60 0 Q40 30 20 80 Q10 100 0 140" stroke-width="0.8"/>
    <path d="M60 0 Q55 20 45 40 Q35 55 25 80"/>
    <path d="M60 0 Q60 25 55 50 Q50 70 40 100"/>
    <path d="M60 0 Q65 20 65 45 Q65 65 55 90"/>
    <path d="M60 0 Q70 15 75 35 Q80 55 75 80"/>
    <path d="M60 0 Q75 10 85 25 Q95 40 95 65"/>
  </g>

  <!-- Palm Frond Right -->
  <g transform="translate(650, 500) scale(-1, 1)">
    <path d="M60 0 Q40 30 20 80 Q10 100 0 140" stroke-width="0.8"/>
    <path d="M60 0 Q55 20 45 40 Q35 55 25 80"/>
    <path d="M60 0 Q60 25 55 50 Q50 70 40 100"/>
    <path d="M60 0 Q65 20 65 45 Q65 65 55 90"/>
    <path d="M60 0 Q70 15 75 35 Q80 55 75 80"/>
    <path d="M60 0 Q75 10 85 25 Q95 40 95 65"/>
  </g>

  <!-- Decorative Bed Headboard -->
  <g transform="translate(550, 300)">
    <rect x="0" y="40" width="120" height="60" rx="3"/>
    <path d="M0 40 Q60 0 120 40"/>
    <line x1="20" y1="100" x2="20" y2="120"/>
    <line x1="100" y1="100" x2="100" y2="120"/>
    <!-- Pillows -->
    <ellipse cx="35" cy="55" rx="20" ry="10"/>
    <ellipse cx="85" cy="55" rx="20" ry="10"/>
  </g>

  <!-- Chandelier -->
  <g transform="translate(350, 280)">
    <line x1="50" y1="0" x2="50" y2="20"/>
    <ellipse cx="50" cy="30" rx="30" ry="15"/>
    <path d="M25 35 Q25 50 30 60"/>
    <path d="M75 35 Q75 50 70 60"/>
    <path d="M50 45 Q50 55 50 65"/>
    <!-- Crystals -->
    <circle cx="30" cy="65" r="3"/>
    <circle cx="50" cy="70" r="3"/>
    <circle cx="70" cy="65" r="3"/>
  </g>

  <!-- Monstera Leaf -->
  <g transform="translate(600, 100)">
    <path d="M40 0 Q20 40 30 80 Q35 100 40 120" stroke-width="0.8"/>
    <path d="M40 0 Q60 40 50 80 Q45 100 40 120" stroke-width="0.8"/>
    <path d="M35 30 Q20 35 10 50"/>
    <path d="M45 30 Q60 35 70 50"/>
    <path d="M32 50 Q15 55 5 75"/>
    <path d="M48 50 Q65 55 75 75"/>
    <path d="M35 70 Q25 80 20 100"/>
    <path d="M45 70 Q55 80 60 100"/>
  </g>

  <!-- Wine Glass -->
  <g transform="translate(100, 150)">
    <ellipse cx="25" cy="10" rx="20" ry="8"/>
    <path d="M5 10 Q5 40 25 50 Q45 40 45 10"/>
    <line x1="25" y1="50" x2="25" y2="80"/>
    <ellipse cx="25" cy="85" rx="18" ry="5"/>
  </g>

  <!-- Concierge Bell -->
  <g transform="translate(200, 600)">
    <ellipse cx="40" cy="60" rx="40" ry="10"/>
    <path d="M5 60 Q5 30 40 20 Q75 30 75 60"/>
    <circle cx="40" cy="15" r="5"/>
    <line x1="40" y1="10" x2="40" y2="0"/>
  </g>

  <!-- Elegant Door with Transom -->
  <g transform="translate(400, 450)">
    <rect x="0" y="30" width="60" height="100" rx="2"/>
    <path d="M0 30 Q30 10 60 30"/>
    <!-- Door panels -->
    <rect x="8" y="45" width="18" height="35" rx="1"/>
    <rect x="34" y="45" width="18" height="35" rx="1"/>
    <rect x="8" y="88" width="18" height="35" rx="1"/>
    <rect x="34" y="88" width="18" height="35" rx="1"/>
    <!-- Handle -->
    <circle cx="48" cy="80" r="3"/>
  </g>

  <!-- Luggage/Suitcase -->
  <g transform="translate(550, 550)">
    <rect x="0" y="15" width="70" height="50" rx="5"/>
    <rect x="25" y="5" width="20" height="10" rx="2"/>
    <line x1="0" y1="40" x2="70" y2="40"/>
    <!-- Handle -->
    <line x1="10" y1="65" x2="10" y2="75"/>
    <line x1="60" y1="65" x2="60" y2="75"/>
    <ellipse cx="10" cy="78" rx="5" ry="3"/>
    <ellipse cx="60" cy="78" rx="5" ry="3"/>
  </g>

  <!-- Decorative Laurel Left -->
  <g transform="translate(150, 700)">
    <path d="M50 0 Q30 20 25 50 Q20 80 30 110"/>
    <ellipse cx="35" cy="20" rx="8" ry="4" transform="rotate(-30 35 20)"/>
    <ellipse cx="28" cy="40" rx="8" ry="4" transform="rotate(-20 28 40)"/>
    <ellipse cx="25" cy="60" rx="8" ry="4" transform="rotate(-10 25 60)"/>
    <ellipse cx="26" cy="80" rx="8" ry="4" transform="rotate(5 26 80)"/>
  </g>

  <!-- Decorative Laurel Right -->
  <g transform="translate(550, 700) scale(-1, 1)">
    <path d="M50 0 Q30 20 25 50 Q20 80 30 110"/>
    <ellipse cx="35" cy="20" rx="8" ry="4" transform="rotate(-30 35 20)"/>
    <ellipse cx="28" cy="40" rx="8" ry="4" transform="rotate(-20 28 40)"/>
    <ellipse cx="25" cy="60" rx="8" ry="4" transform="rotate(-10 25 60)"/>
    <ellipse cx="26" cy="80" rx="8" ry="4" transform="rotate(5 26 80)"/>
  </g>

  <!-- Star/Compass Rose -->
  <g transform="translate(350, 600)">
    <polygon points="50,0 55,40 100,50 55,60 50,100 45,60 0,50 45,40"/>
    <circle cx="50" cy="50" r="10"/>
  </g>
</svg>